<?xml version="1.0" encoding="UTF-8" standalone="no"?><svg xmlns="http://www.w3.org/2000/svg" xmlns:xlink="http://www.w3.org/1999/xlink" contentScriptType="application/ecmascript" contentStyleType="text/css" height="448px" preserveAspectRatio="none" style="width:488px;height:448px;" version="1.1" viewBox="0 0 488 448" width="488px" zoomAndPan="magnify"><defs><filter height="300%" id="f1dbbvvr80qsqk" width="300%" x="-1" y="-1"><feGaussianBlur result="blurOut" stdDeviation="2.0"/><feColorMatrix in="blurOut" result="blurOut2" type="matrix" values="0 0 0 0 0 0 0 0 0 0 0 0 0 0 0 0 0 0 .4 0"/><feOffset dx="4.0" dy="4.0" in="blurOut2" result="blurOut3"/><feBlend in="SourceGraphic" in2="blurOut3" mode="normal"/></filter></defs><g><!--cluster database--><polygon fill="#FFFFFF" filter="url(#f1dbbvvr80qsqk)" points="22,24,112,24,119,44,466,44,466,301,22,301,22,24" style="stroke: #000000; stroke-width: 2.0;"/><line style="stroke: #000000; stroke-width: 2.0;" x1="22" x2="119" y1="44" y2="44"/><text fill="#000000" font-family="IPAexGothic" font-size="14" font-weight="bold" lengthAdjust="spacingAndGlyphs" textLength="84" x="26" y="38.3184">データベース</text><!--cluster user_authenticator--><polygon fill="#FFFFFF" filter="url(#f1dbbvvr80qsqk)" points="166,325,256,325,263,345,284,345,284,436,166,436,166,325" style="stroke: #000000; stroke-width: 2.0;"/><line style="stroke: #000000; stroke-width: 2.0;" x1="166" x2="263" y1="345" y2="345"/><text fill="#000000" font-family="IPAexGothic" font-size="14" font-weight="bold" lengthAdjust="spacingAndGlyphs" textLength="84" x="170" y="339.3184">認証サービス</text><!--class idea--><rect fill="#FEFECE" filter="url(#f1dbbvvr80qsqk)" height="84" id="idea" style="stroke: #A80036; stroke-width: 1.5;" width="95" x="109.5" y="57"/><ellipse cx="142.05" cy="73" fill="#ADD1B2" rx="11" ry="11" style="stroke: #A80036; stroke-width: 1.0;"/><path d="M146.1594,79 L138.4406,79 L138.4406,66.6094 L146.1594,66.6094 L146.1594,68.7656 L140.8938,68.7656 L140.8938,71.4375 L145.6594,71.4375 L145.6594,73.5938 L140.8938,73.5938 L140.8938,76.8438 L146.1594,76.8438 L146.1594,79 Z "/><text fill="#000000" font-family="IPAexGothic" font-size="12" lengthAdjust="spacingAndGlyphs" textLength="24" x="159.95" y="77.5586">お題</text><line style="stroke: #A80036; stroke-width: 1.5;" x1="110.5" x2="203.5" y1="89" y2="89"/><ellipse cx="120.5" cy="100" fill="none" rx="3" ry="3" style="stroke: #038048; stroke-width: 1.0;"/><text fill="#000000" font-family="IPAexGothic" font-size="11" lengthAdjust="spacingAndGlyphs" textLength="59" x="129.5" y="102.6787">お題 ID [PK]</text><text fill="#000000" font-family="IPAexGothic" font-size="11" lengthAdjust="spacingAndGlyphs" textLength="22" x="129.5" y="113.6787">お題</text><polygon fill="none" points="120.5,117,124.5,121,120.5,125,116.5,121" style="stroke: #B38D22; stroke-width: 1.0;"/><text fill="#000000" font-family="IPAexGothic" font-size="11" lengthAdjust="spacingAndGlyphs" textLength="69" x="129.5" y="124.6787">ユーザ ID [FK]</text><text fill="#000000" font-family="IPAexGothic" font-size="11" lengthAdjust="spacingAndGlyphs" textLength="55" x="129.5" y="135.6787">created_at</text><!--class response--><rect fill="#FEFECE" filter="url(#f1dbbvvr80qsqk)" height="84" id="response" style="stroke: #A80036; stroke-width: 1.5;" width="104" x="38" y="201"/><ellipse cx="53" cy="217" fill="#ADD1B2" rx="11" ry="11" style="stroke: #A80036; stroke-width: 1.0;"/><path d="M57.1094,223 L49.3906,223 L49.3906,210.6094 L57.1094,210.6094 L57.1094,212.7656 L51.8438,212.7656 L51.8438,215.4375 L56.6094,215.4375 L56.6094,217.5938 L51.8438,217.5938 L51.8438,220.8438 L57.1094,220.8438 L57.1094,223 Z "/><text fill="#000000" font-family="IPAexGothic" font-size="12" lengthAdjust="spacingAndGlyphs" textLength="72" x="67" y="221.5586">回答イラスト</text><line style="stroke: #A80036; stroke-width: 1.5;" x1="39" x2="141" y1="233" y2="233"/><ellipse cx="49" cy="244" fill="none" rx="3" ry="3" style="stroke: #038048; stroke-width: 1.0;"/><text fill="#000000" font-family="IPAexGothic" font-size="11" lengthAdjust="spacingAndGlyphs" textLength="59" x="58" y="246.6787">回答 ID [PK]</text><text fill="#000000" font-family="IPAexGothic" font-size="11" lengthAdjust="spacingAndGlyphs" textLength="65" x="58" y="257.6787">イラスト URI</text><polygon fill="none" points="49,261,53,265,49,269,45,265" style="stroke: #B38D22; stroke-width: 1.0;"/><text fill="#000000" font-family="IPAexGothic" font-size="11" lengthAdjust="spacingAndGlyphs" textLength="69" x="58" y="268.6787">ユーザ ID [FK]</text><text fill="#000000" font-family="IPAexGothic" font-size="11" lengthAdjust="spacingAndGlyphs" textLength="55" x="58" y="279.6787">created_at</text><!--class user--><rect fill="#FEFECE" filter="url(#f1dbbvvr80qsqk)" height="84" id="user" style="stroke: #A80036; stroke-width: 1.5;" width="96" x="177" y="201"/><ellipse cx="204.6" cy="217" fill="#ADD1B2" rx="11" ry="11" style="stroke: #A80036; stroke-width: 1.0;"/><path d="M208.7094,223 L200.9906,223 L200.9906,210.6094 L208.7094,210.6094 L208.7094,212.7656 L203.4438,212.7656 L203.4438,215.4375 L208.2094,215.4375 L208.2094,217.5938 L203.4438,217.5938 L203.4438,220.8438 L208.7094,220.8438 L208.7094,223 Z "/><text fill="#000000" font-family="IPAexGothic" font-size="12" lengthAdjust="spacingAndGlyphs" textLength="36" x="221.4" y="221.5586">ユーザ</text><line style="stroke: #A80036; stroke-width: 1.5;" x1="178" x2="272" y1="233" y2="233"/><ellipse cx="188" cy="244" fill="none" rx="3" ry="3" style="stroke: #038048; stroke-width: 1.0;"/><text fill="#000000" font-family="IPAexGothic" font-size="11" lengthAdjust="spacingAndGlyphs" textLength="70" x="197" y="246.6787">ユーザ ID [PK]</text><text fill="#000000" font-family="IPAexGothic" font-size="11" lengthAdjust="spacingAndGlyphs" textLength="44" x="197" y="257.6787">ユーザ名</text><text fill="#000000" font-family="IPAexGothic" font-size="11" lengthAdjust="spacingAndGlyphs" textLength="55" x="197" y="268.6787">created_at</text><text fill="#000000" font-family="IPAexGothic" font-size="11" lengthAdjust="spacingAndGlyphs" textLength="60" x="197" y="279.6787">updated_at</text><!--class user_id_provider--><rect fill="#FEFECE" filter="url(#f1dbbvvr80qsqk)" height="84" id="user_id_provider" style="stroke: #A80036; stroke-width: 1.5;" width="142" x="308" y="201"/><ellipse cx="338.75" cy="217" fill="#ADD1B2" rx="11" ry="11" style="stroke: #A80036; stroke-width: 1.0;"/><path d="M342.8594,223 L335.1406,223 L335.1406,210.6094 L342.8594,210.6094 L342.8594,212.7656 L337.5938,212.7656 L337.5938,215.4375 L342.3594,215.4375 L342.3594,217.5938 L337.5938,217.5938 L337.5938,220.8438 L342.8594,220.8438 L342.8594,223 Z "/><text fill="#000000" font-family="IPAexGothic" font-size="12" lengthAdjust="spacingAndGlyphs" textLength="75" x="356.25" y="221.5586">ID プロバイダ</text><line style="stroke: #A80036; stroke-width: 1.5;" x1="309" x2="449" y1="233" y2="233"/><polygon fill="none" points="319,239,323,243,319,247,315,243" style="stroke: #B38D22; stroke-width: 1.0;"/><text fill="#000000" font-family="IPAexGothic" font-size="11" lengthAdjust="spacingAndGlyphs" textLength="69" x="328" y="246.6787">ユーザ ID [FK]</text><text fill="#000000" font-family="IPAexGothic" font-size="11" lengthAdjust="spacingAndGlyphs" textLength="55" x="328" y="257.6787">プロバイダ</text><text fill="#000000" font-family="IPAexGothic" font-size="11" lengthAdjust="spacingAndGlyphs" textLength="116" x="328" y="268.6787">プロバイダ側 ユーザ ID</text><text fill="#000000" font-family="IPAexGothic" font-size="11" lengthAdjust="spacingAndGlyphs" textLength="55" x="328" y="279.6787">created_at</text><!--class user_pool--><rect fill="#FEFECE" filter="url(#f1dbbvvr80qsqk)" height="62" id="user_pool" style="stroke: #A80036; stroke-width: 1.5;" width="85" x="182.5" y="358"/><ellipse cx="197.5" cy="374" fill="#ADD1B2" rx="11" ry="11" style="stroke: #A80036; stroke-width: 1.0;"/><path d="M201.6094,380 L193.8906,380 L193.8906,367.6094 L201.6094,367.6094 L201.6094,369.7656 L196.3438,369.7656 L196.3438,372.4375 L201.1094,372.4375 L201.1094,374.5938 L196.3438,374.5938 L196.3438,377.8438 L201.6094,377.8438 L201.6094,380 Z "/><text fill="#000000" font-family="IPAexGothic" font-size="12" lengthAdjust="spacingAndGlyphs" textLength="53" x="211.5" y="378.5586">User Pool</text><line style="stroke: #A80036; stroke-width: 1.5;" x1="183.5" x2="266.5" y1="390" y2="390"/><ellipse cx="193.5" cy="401" fill="none" rx="3" ry="3" style="stroke: #038048; stroke-width: 1.0;"/><text fill="#000000" font-family="IPAexGothic" font-size="11" lengthAdjust="spacingAndGlyphs" textLength="47" x="202.5" y="403.6787">ユーザ ID</text><text fill="#000000" font-family="IPAexGothic" font-size="11" lengthAdjust="spacingAndGlyphs" textLength="44" x="202.5" y="414.6787">ユーザ名</text><!--link idea to response--><path d="M137.62,141.07 C129.98,157.27 121.14,176.01 113.16,192.91 " fill="none" id="idea-response" style="stroke: #A80036; stroke-width: 1.0;"/><line style="stroke: #A80036; stroke-width: 1.0;" x1="112.9867" x2="114.9953" y1="193.2963" y2="203.0925"/><line style="stroke: #A80036; stroke-width: 1.0;" x1="112.9867" x2="104.1447" y1="193.2963" y2="197.9675"/><line style="stroke: #A80036; stroke-width: 1.0;" x1="112.9867" x2="109.57" y1="193.2963" y2="200.53"/><ellipse cx="115.5492" cy="187.8711" fill="none" rx="4" ry="4" style="stroke: #A80036; stroke-width: 1.0;"/><!--link user to user_id_provider--><path d="M273.12,243 C281.99,243 290.86,243 299.72,243 " fill="none" id="user-user_id_provider" style="stroke: #A80036; stroke-width: 1.0;"/><line style="stroke: #A80036; stroke-width: 1.0;" x1="299.87" x2="307.87" y1="243" y2="237"/><line style="stroke: #A80036; stroke-width: 1.0;" x1="299.87" x2="307.87" y1="243" y2="249"/><line style="stroke: #A80036; stroke-width: 1.0;" x1="299.87" x2="307.87" y1="243" y2="243"/><line style="stroke: #A80036; stroke-width: 1.0;" x1="297.87" x2="297.87" y1="239" y2="247"/><!--link idea to user--><path d="M180.31,148.68 C187.19,163.04 194.72,178.77 201.61,193.15 " fill="none" id="idea-user" style="stroke: #A80036; stroke-width: 1.0;"/><line style="stroke: #A80036; stroke-width: 1.0;" x1="200.3863" x2="205.14" y1="190.6102" y2="200.53"/><ellipse cx="200.3863" cy="190.6102" fill="none" rx="4" ry="4" style="stroke: #A80036; stroke-width: 1.0;"/><line style="stroke: #A80036; stroke-width: 1.0;" x1="207.0186" x2="199.8042" y1="195.1942" y2="198.6514"/><line style="stroke: #A80036; stroke-width: 1.0;" x1="180.1272" x2="171.2592" y1="148.2844" y2="143.6629"/><line style="stroke: #A80036; stroke-width: 1.0;" x1="180.1272" x2="182.0808" y1="148.2844" y2="138.4771"/><line style="stroke: #A80036; stroke-width: 1.0;" x1="180.1272" x2="176.67" y1="148.2844" y2="141.07"/><ellipse cx="182.7201" cy="153.6952" fill="none" rx="4" ry="4" style="stroke: #A80036; stroke-width: 1.0;"/><!--link response to user--><path d="M150.32,243 C159.15,243 167.98,243 176.81,243 " fill="none" id="response-user" style="stroke: #A80036; stroke-width: 1.0;"/><line style="stroke: #A80036; stroke-width: 1.0;" x1="150.21" x2="142.21" y1="243" y2="249"/><line style="stroke: #A80036; stroke-width: 1.0;" x1="150.21" x2="142.21" y1="243" y2="237"/><line style="stroke: #A80036; stroke-width: 1.0;" x1="150.21" x2="142.21" y1="243" y2="243"/><ellipse cx="156.21" cy="243" fill="none" rx="4" ry="4" style="stroke: #A80036; stroke-width: 1.0;"/><!--link user to user_pool--><path d="M225,285.26 C225,308.37 225,336.67 225,357.72 " fill="none" id="user-user_pool" style="stroke: #A80036; stroke-width: 1.0;"/></g></svg>